<?xml version="1.0" encoding="UTF-8" standalone="no"?><!-- Generator: Gravit.io --><svg xmlns="http://www.w3.org/2000/svg" xmlns:xlink="http://www.w3.org/1999/xlink" style="isolation:isolate" viewBox="499.014 205 252.973 265.992" width="252.973pt" height="265.992pt"><defs><clipPath id="_clipPath_eVQB42HuCa0Xhb8Y8Sp62fgUcUGbUg37"><rect x="499.014" y="205" width="252.973" height="265.992"/></clipPath></defs><g clip-path="url(#_clipPath_eVQB42HuCa0Xhb8Y8Sp62fgUcUGbUg37)"><g><g><g><path d=" M 715.359 338.007 L 751.986 296.912 L 698.203 285.187 L 703.683 230.409 L 653.277 252.534 L 625.498 205 L 597.739 252.529 L 547.341 230.39 L 552.809 285.168 L 499.019 296.883 L 535.641 337.988 L 499.014 379.082 L 552.797 390.808 L 547.318 445.583 L 597.723 423.458 L 625.501 470.992 L 653.26 423.466 L 703.66 445.602 L 698.193 390.824 L 751.981 379.109 L 715.359 338.007 Z  M 733.126 368.921 L 701.399 358.069 L 680.349 330.71 L 708.348 341.112 L 733.126 368.921 Z  M 648.124 417.786 L 629.149 450.272 L 629.149 415.824 L 648.873 387.045 L 648.124 417.786 Z  M 614.886 283.097 L 582.236 271.486 L 562.701 245.11 L 596.941 260.151 L 614.886 283.097 Z  M 654.074 260.158 L 688.311 245.127 L 668.764 271.486 L 636.122 283.094 L 654.074 260.158 Z  M 690.713 286.74 L 673.686 310.885 L 674.651 275.803 L 694.482 249.061 L 690.713 286.74 Z  M 625.499 408.238 L 602.655 374.906 L 625.499 343.908 L 648.344 374.906 L 625.499 408.238 Z  M 584.872 320.216 L 583.76 279.774 L 621.85 293.319 L 621.85 332.676 L 584.872 320.216 Z  M 629.149 293.319 L 667.24 279.774 L 666.127 320.216 L 629.149 332.676 L 629.149 293.319 Z  M 560.3 286.725 L 556.539 249.054 L 576.349 275.801 L 577.313 310.875 L 560.3 286.725 Z  M 619.594 339.62 L 596.758 370.606 L 557.963 359.169 L 582.597 327.154 L 619.594 339.62 Z  M 602.121 387.038 L 621.85 415.824 L 621.85 450.279 L 602.859 417.78 L 602.121 387.038 Z  M 631.405 339.62 L 668.402 327.154 L 693.038 359.17 L 654.241 370.606 L 631.405 339.62 Z  M 738.225 301.384 L 709.405 333.717 L 675.42 321.092 L 695.836 292.14 L 738.225 301.384 Z  M 625.501 219.47 L 647.365 256.885 L 625.5 284.821 L 603.65 256.882 L 625.501 219.47 Z  M 512.781 301.355 L 555.175 292.124 L 575.58 321.09 L 541.598 333.699 L 512.781 301.355 Z  M 542.65 341.094 L 570.657 330.702 L 549.604 358.066 L 517.863 368.903 L 542.65 341.094 Z  M 519.467 376.07 L 551.905 364.995 L 585.69 374.953 L 556.58 384.163 L 519.467 376.07 Z  M 560.144 390.689 L 594.646 379.774 L 595.526 416.449 L 555.824 433.879 L 560.144 390.689 Z  M 655.457 416.458 L 656.351 379.775 L 690.846 390.702 L 695.157 433.894 L 655.457 416.458 Z  M 694.41 384.176 L 665.302 374.955 L 699.097 364.994 L 731.541 376.091 L 694.41 384.176 Z " fill-rule="evenodd" fill="rgb(255,255,255)"/></g></g></g></g></svg>
